<!DOCTYPE svg PUBLIC "-//W3C//DTD SVG 1.1//EN" "http://www.w3.org/Graphics/SVG/1.1/DTD/svg11.dtd">
<!-- Uploaded to: SVG Repo, www.svgrepo.com, Transformed by: SVG Repo Mixer Tools -->
<svg fill="#000000" width="800px" height="800px" viewBox="0 0 32 32" version="1.1" xmlns="http://www.w3.org/2000/svg">
<g id="SVGRepo_bgCarrier" stroke-width="0"/>
<g id="SVGRepo_tracerCarrier" stroke-linecap="round" stroke-linejoin="round"/>
<g id="SVGRepo_iconCarrier"> <title>chessboard</title> <path d="M19.427 9.067h3.453v3.453h-3.453v-3.453zM19.427 15.974h3.453v3.453h-3.453v-3.453zM15.974 19.427h3.453v3.453h-3.453v-3.453zM5.614 9.067h3.453v3.453h-3.453v-3.453zM9.067 5.614h3.453v3.453h-3.453v-3.453zM15.974 5.614h3.453v3.453h-3.453v-3.453zM9.067 12.52h3.453v3.453h-3.453v-3.453zM12.521 15.974h3.453v3.453h-3.453v-3.453zM15.974 12.52h3.453v3.453h-3.453v-3.453zM12.521 9.067h3.453v3.453h-3.453v-3.453zM9.067 19.427h3.453v3.453h-3.453v-3.453zM5.614 15.974h3.453v3.453h-3.453v-3.453zM19.427 22.88h3.453v3.453h-3.453v-3.453zM22.88 12.52h3.453v3.453h-3.453v-3.453zM12.521 22.88h3.453v3.453h-3.453v-3.453zM22.88 19.427h3.453v3.453h-3.453v-3.453zM22.88 5.614h3.453v3.453h-3.453v-3.453zM0.927 0.926v30.095h30.095v-30.095h-30.095zM29.787 9.067h-3.453v3.453h3.453v3.453h-3.453v3.453h3.453v3.453h-3.453v3.453h3.453v3.453h-3.453v-3.453h-3.453v3.453h-3.453v-3.453h-3.453v3.453h-3.453v-3.453h-3.453v3.453h-3.453v-3.453h-3.453v-3.453h3.453v-3.453h-3.453v-3.453h3.453v-3.453h-3.453v-3.453h3.453v-3.453h-3.453v-3.453h3.453v3.453h3.453v-3.453h3.453v3.453h3.453v-3.453h3.453v3.453h3.453v-3.453h3.453v3.453h3.453v3.453zM5.614 22.88h3.453v3.453h-3.453v-3.453z"/> </g>
</svg>