<!DOCTYPE svg PUBLIC "-//W3C//DTD SVG 1.1//EN" "http://www.w3.org/Graphics/SVG/1.1/DTD/svg11.dtd">
<!-- Uploaded to: SVG Repo, www.svgrepo.com, Transformed by: SVG Repo Mixer Tools -->
<svg width="800px" height="800px" viewBox="-1.7 -1.7 20.40 20.40" version="1.1" xmlns="http://www.w3.org/2000/svg" xmlns:xlink="http://www.w3.org/1999/xlink" class="si-glyph si-glyph-cross-hair-2" fill="#000000" transform="rotate(45)matrix(-1, 0, 0, -1, 0, 0)">
<g id="SVGRepo_bgCarrier" stroke-width="0"/>
<g id="SVGRepo_tracerCarrier" stroke-linecap="round" stroke-linejoin="round" stroke="#CCCCCC" stroke-width="0.068"/>
<g id="SVGRepo_iconCarrier"> <title>962</title> <defs> </defs> <g stroke="none" stroke-width="1" fill="none" fill-rule="evenodd"> <g transform="translate(1.000000, 0.000000)" fill="#131111"> <path d="M7.979,10 C9.07197152,10 9.958,9.03782126 9.958,7.957 C9.958,6.87617874 9.07197152,6 7.979,6 C6.88602848,6 6,6.87617874 6,7.957 C6,9.03782126 6.88602848,10 7.979,10 Z" class="si-glyph-fill"> </path> <rect x="7" y="0" width="1.98620605" height="4" class="si-glyph-fill"> </rect> <path d="M7,12 L7,16.0025635 L9.00732422,16.0025635 L9.00732422,12 L7,12 Z" class="si-glyph-fill"> </path> <rect x="0" y="7" width="3.98449707" height="1.96850586" class="si-glyph-fill"> </rect> <path d="M12,7 L12.0000001,8.92785645 L15.9897461,8.92785645 L15.989746,7 L12,7 Z" class="si-glyph-fill"> </path> </g> </g> </g>
</svg>