<!DOCTYPE svg PUBLIC "-//W3C//DTD SVG 1.1//EN" "http://www.w3.org/Graphics/SVG/1.1/DTD/svg11.dtd">
<!-- Uploaded to: SVG Repo, www.svgrepo.com, Transformed by: SVG Repo Mixer Tools -->
<svg height="800px" width="800px" version="1.1" id="Layer_1" xmlns="http://www.w3.org/2000/svg" xmlns:xlink="http://www.w3.org/1999/xlink" viewBox="0 0 512 512" xml:space="preserve" fill="#000000">
<g id="SVGRepo_bgCarrier" stroke-width="0"/>
<g id="SVGRepo_tracerCarrier" stroke-linecap="round" stroke-linejoin="round"/>
<g id="SVGRepo_iconCarrier"> <g> <path style="fill:#ffffff;" d="M288.581,338.898l30.718-72.926c6.283-14.922,6.357-27.949,0.202-35.741 c-6.159-7.792-18.864-10.727-34.83-8.068L88.446,254.933v86.128L288.581,338.898z M260.775,268.889l28.261-28.261 c3.68-3.68,9.641-3.68,13.321,0c3.68,3.68,3.68,9.641,0,13.321l-28.261,28.261c-1.84,1.84-4.25,2.76-6.661,2.76 c-2.41,0-4.821-0.92-6.661-2.76C257.095,278.53,257.095,272.569,260.775,268.889z"/> <path style="fill:#ffffff;" d="M399.323,266.129c-10.391,0-18.841,8.454-18.841,18.841s8.45,18.841,18.841,18.841 s18.841-8.454,18.841-18.841S409.714,266.129,399.323,266.129z"/> </g> <path style="fill:#ffffff;" d="M298.747,58.878h-15.52c-101.318,0-184.734,77.799-193.868,176.802l192.212-32.1 c23.284-3.882,42.015,1.426,52.714,14.968s11.541,32.981,2.374,54.738l-33.114,78.621c-1.454,3.459-4.825,5.731-8.579,5.768 l-206.033,2.222c2.382,41.469,17.776,81.111,44.338,113.124l332.417-90.81c2.76-11.067,4.581-22.364,5.428-33.653l7.194-96.091 c3.873-51.794-12.664-100.442-46.564-136.974C397.864,78.989,350.633,58.878,298.747,58.878z M399.323,322.652 c-20.778,0-37.682-16.9-37.682-37.682c0-20.782,16.904-37.682,37.682-37.682s37.682,16.9,37.682,37.682 C437.004,305.752,420.1,322.652,399.323,322.652z"/> <g> <path style="fill:#ec5242;" d="M445.555,102.678c-37.484-40.396-89.624-62.641-146.809-62.641h-15.52 c-115.157,0-209.266,91.624-213.422,205.81c-0.046,0.377-0.199,0.721-0.199,1.109v6.753v95.005v1.868 c0,0.189,0.098,0.358,0.11,0.546c0.579,51.173,19.362,100.383,53.216,138.783c1.812,2.061,4.402,3.192,7.065,3.192 c0.828,0,1.661-0.11,2.484-0.331l343.416-93.818c3.202-0.874,5.704-3.376,6.592-6.569c3.855-13.882,6.348-28.16,7.415-42.429 l7.194-96.091C501.37,196.791,483.063,143.101,445.555,102.678z M284.671,222.163c15.966-2.659,28.671,0.276,34.83,8.068 c6.155,7.792,6.081,20.819-0.202,35.741l-30.718,72.926L88.446,341.06v-86.128L284.671,222.163z M478.311,252.467l-7.194,96.091 c-0.846,11.288-2.668,22.585-5.428,33.653l-332.417,90.81c-26.563-32.013-41.956-71.655-44.338-113.124l206.033-2.222 c3.754-0.037,7.125-2.309,8.579-5.768l33.114-78.621c9.168-21.757,8.326-41.196-2.373-54.738s-29.43-18.85-52.714-14.968 l-192.212,32.1c9.134-99.003,92.55-176.802,193.868-176.802h15.52c51.886,0,99.117,20.111,133,56.615 C465.648,152.025,482.184,200.673,478.311,252.467z"/> <path style="fill:#ec5242;" d="M399.323,247.288c-20.778,0-37.682,16.9-37.682,37.682c0,20.782,16.904,37.682,37.682,37.682 s37.682-16.9,37.682-37.682C437.004,264.188,420.1,247.288,399.323,247.288z M399.323,303.811 c-10.391,0-18.841-8.454-18.841-18.841s8.45-18.841,18.841-18.841s18.841,8.454,18.841,18.841S409.714,303.811,399.323,303.811z"/> <path style="fill:#ec5242;" d="M267.436,284.97c2.41,0,4.821-0.92,6.661-2.76l28.261-28.261c3.68-3.68,3.68-9.641,0-13.321 s-9.641-3.68-13.321,0l-28.261,28.261c-3.68,3.68-3.68,9.641,0,13.321C262.615,284.05,265.025,284.97,267.436,284.97z"/> <path style="fill:#ec5242;" d="M461.094,411.723L161.639,493.49c-5.023,1.371-7.981,6.55-6.61,11.573 c1.145,4.186,4.94,6.937,9.085,6.937c0.819,0,1.656-0.11,2.484-0.331l299.455-81.767c5.023-1.371,7.981-6.55,6.61-11.573 C471.287,413.315,466.089,410.362,461.094,411.723z"/> </g> <g> <path style="fill:#ffffff;" d="M23.715,141.307c-2.411,0-4.822-0.92-6.662-2.76c-3.679-3.678-3.679-9.644,0-13.321l33.306-33.308 c3.68-3.68,9.644-3.68,13.323,0c3.679,3.678,3.679,9.644,0,13.321l-33.306,33.308C28.537,140.387,26.126,141.307,23.715,141.307z"/> <path style="fill:#ffffff;" d="M57.021,141.307c-2.411,0-4.822-0.92-6.662-2.76l-33.306-33.305c-3.679-3.678-3.679-9.644,0-13.321 c3.68-3.68,9.644-3.68,13.323,0l33.306,33.305c3.679,3.678,3.679,9.644,0,13.321C61.843,140.387,59.433,141.307,57.021,141.307z"/> </g> <path style="fill:#ffffff;" d="M461.768,65.943c-18.181,0-32.972-14.791-32.972-32.972S443.587,0,461.768,0 c18.181,0,32.972,14.791,32.972,32.972S479.948,65.943,461.768,65.943z M461.768,18.841c-7.792,0-14.131,6.339-14.131,14.131 s6.339,14.131,14.131,14.131s14.131-6.339,14.131-14.131S469.56,18.841,461.768,18.841z"/> <path style="fill:#ec5242;" d="M361.237,194.597c-2.41,0-4.822-0.92-6.661-2.76l-26.646-26.645c-1.768-1.766-2.76-4.163-2.76-6.661 c0-2.498,0.992-4.894,2.76-6.661l26.646-26.645c3.68-3.678,9.645-3.678,13.322,0l26.645,26.645c3.679,3.678,3.679,9.644,0,13.321 l-26.645,26.645C366.059,193.677,363.647,194.597,361.237,194.597z M347.913,158.532l13.323,13.321l13.322-13.321l-13.322-13.321 L347.913,158.532z"/> </g>
</svg>