<?xml version="1.0" encoding="iso-8859-1"?>
<!-- Uploaded to: SVG Repo, www.svgrepo.com, Generator: SVG Repo Mixer Tools -->
<svg fill="#000000" height="800px" width="800px" version="1.1" id="Layer_1" xmlns="http://www.w3.org/2000/svg" xmlns:xlink="http://www.w3.org/1999/xlink" 
	 viewBox="0 0 462.9 462.9" xml:space="preserve">
<g transform="translate(0 -540.36)">
	<g>
		<g>
			<path d="M246.1,862.16h-29.2c-4.1,0-7.5,3.4-7.5,7.5s3.4,7.5,7.5,7.5h29.2c4.1,0,7.5-3.4,7.5-7.5S250.2,862.16,246.1,862.16z"/>
			<path d="M330.9,862.16h-29.2c-4.1,0-7.5,3.4-7.5,7.5s3.4,7.5,7.5,7.5h29.2c4.2,0,7.5-3.4,7.5-7.5S335,862.16,330.9,862.16z"/>
			<path d="M161.3,862.16h-29.2c-4.1,0-7.5,3.4-7.5,7.5s3.4,7.5,7.5,7.5h29.2c4.1,0,7.5-3.4,7.5-7.5S165.4,862.16,161.3,862.16z"/>
			<path d="M56.8,788.76v-34c0-4.1-3.4-7.5-7.5-7.5c-4.1,0-7.5,3.4-7.5,7.5v34c0,4.1,3.4,7.5,7.5,7.5
				C53.4,796.26,56.8,792.86,56.8,788.76z"/>
			<path d="M406.2,754.76v34c0,4.1,3.4,7.5,7.5,7.5c4.2,0,7.5-3.4,7.5-7.5v-34c0-4.1-3.4-7.5-7.5-7.5
				C409.6,747.26,406.2,750.66,406.2,754.76z"/>
			<path d="M330.9,666.36h-29.2c-4.1,0-7.5,3.4-7.5,7.5s3.4,7.5,7.5,7.5h29.2c4.2,0,7.5-3.4,7.5-7.5S335,666.36,330.9,666.36z"/>
			<path d="M132.1,681.36h29.2c4.1,0,7.5-3.4,7.5-7.5s-3.4-7.5-7.5-7.5h-29.2c-4.1,0-7.5,3.4-7.5,7.5S128,681.36,132.1,681.36z"/>
			<path d="M87.1,850.46c-11.3-7.2-18.4-14.5-22.5-22.8c-1.8-3.8-6.3-5.3-10-3.5c-3.8,1.8-5.3,6.3-3.5,10
				c5.3,10.9,14.2,20.1,27.9,28.9c1.2,0.8,2.6,1.2,4,1.2c2.5,0,4.9-1.2,6.4-3.4C91.6,857.36,90.6,852.66,87.1,850.46z"/>
			<path d="M408.3,824.06c-3.7-1.8-8.2-0.2-10,3.5c-4.8,10.1-14,17.6-21.5,23.1c-3.3,2.5-4,7.2-1.6,10.5c1.5,2,3.8,3.1,6.1,3.1
				c1.5,0,3.1-0.5,4.3-1.6c8.9-6.5,19.9-15.6,26.2-28.6C413.6,830.36,412,825.86,408.3,824.06z"/>
			<path d="M54.3,717.86c1.1,0.6,2.4,0.9,3.6,0.9v0c2.6,0,5.1-1.4,6.6-3.8c4.9-8.8,13.4-17,22.1-21.5c3.6-1.9,5.1-6.4,3.2-10.1
				c-1.9-3.6-6.4-5.1-10.1-3.2c-11.4,5.8-22,16.1-28.3,27.5C49.4,711.26,50.7,715.86,54.3,717.86z"/>
			<polygon points="405.1,718.76 405.1,718.76 405.1,718.76 			"/>
			<path d="M398.5,714.86c1.4,2.5,4,3.9,6.6,3.9c1.3,0,2.5-0.3,3.6-0.9c3.6-2,4.9-6.6,2.9-10.2c-5.6-10.1-13.2-21.3-27.3-27.7
				c-3.7-1.7-8.2-0.1-9.9,3.7c-1.7,3.7-0.1,8.2,3.7,9.9C388.2,698.16,393.8,706.46,398.5,714.86z"/>
			<path d="M342.8,628.26H120.2C53.9,628.26,0,683.46,0,751.36v42.2c0,32.8,12.5,63.5,35.1,86.4c22.6,22.8,52.8,35.4,85,35.4h222.7
				c32.2,0,62.4-12.6,85-35.4c22.7-22.9,35.1-53.5,35.1-86.4v-42.2C463,683.46,409.1,628.26,342.8,628.26z M239,643.26h26.1v23.1
				H239V643.26z M321.6,719.46c23.2,0,42.9,19.6,42.9,42.8v20.4c0,22.9-19.2,41.5-42.9,41.5H141.4c-23.6,0-42.9-18.6-42.9-41.5
				v-20.4c0-23.2,19.6-42.8,42.9-42.8H321.6z M239,681.36h26.1v23.1H239V681.36z M197.9,643.26H224v23.1h-26.1V643.26z
				 M197.9,681.36H224v23.1h-26.1V681.36z M448.3,793.56H448c0,59.9-46.2,106.7-105.2,106.7H120.2c-59,0-105.2-46.9-105.2-106.7
				v-42.2c0-59.6,47.2-108.1,105.2-108.1h62.7v61.2h-41.5c-15.4,0-29.9,6.1-40.9,17.2c-10.9,11-16.9,25.4-16.9,40.6v20.4
				c0,31.1,26,56.5,57.9,56.5h180.3c31.9,0,57.9-25.3,57.9-56.5v-20.4c0-15.2-6-29.6-16.9-40.6c-11-11.1-25.5-17.2-40.9-17.2h-41.5
				v-61.2h62.7c58,0,105.2,48.5,105.2,108.1V793.56z"/>
		</g>
	</g>
</g>
</svg>