<?xml version="1.0" ?><!-- Uploaded to: SVG Repo, www.svgrepo.com, Generator: SVG Repo Mixer Tools -->
<svg fill="#000000" width="800px" height="800px" viewBox="0 0 512 512" data-name="Layer 1" id="Layer_1" xmlns="http://www.w3.org/2000/svg"><title/><path d="M447.49,381.48a69,69,0,0,0-23.18-23.14l-.05,0-87.59-53.79a8,8,0,0,0,.72-11.94L311.84,267a8,8,0,0,0-9.24-1.49l-8.77,4.39v-7.51l.28-.15a68.41,68.41,0,0,0,34.82-50.62h32.84A13.27,13.27,0,0,0,375,198.38V141.6a13.26,13.26,0,0,0-13.25-13.25h-9.51a97.48,97.48,0,0,0-194.3,0h-9.51a13.28,13.28,0,0,0-13.26,13.26v56.78a13.28,13.28,0,0,0,13.26,13.26h9.48a41.72,41.72,0,0,0,37.83,33.53,68.49,68.49,0,0,0,20.34,17.08l.28.15V270l-8.8-4.4a8,8,0,0,0-9.23,1.5L172.8,292.6a8,8,0,0,0,1.56,12.52L87.7,358.34h0C67.85,370.53,56,390.55,56,411.89v53.25a8,8,0,0,0,8,8H448a8,8,0,0,0,8-8V411.88A59.46,59.46,0,0,0,447.49,381.48Zm-195-69.23,2.67-2.68,2.67,2.68V456.71h-5.34Zm21.34,16,1.23,1.23a8,8,0,0,0,9.24,1.49L320,313.06l81,49.77a52,52,0,0,0-10.25,7.79c-17.2,16.64-26.43,45.72-27.48,86.52H273.78Zm30.83-45.83,13.63,13.63-36,18-13.64-13.63Zm-44-10.7a60.29,60.29,0,0,0,17.26-2.53v8.74l-22.72,11.38L232.38,278v-8.76a60.35,60.35,0,0,0,17.27,2.53Zm25.82-23.47c-.76.42-1.53.8-2.3,1.17a8.37,8.37,0,0,0-2.12.79c-.61.34-1.23.65-1.86.95a52,52,0,0,1-18.76,3.52H248.86a52,52,0,0,1-18.73-3.51c-.63-.31-1.26-.62-1.88-1a8.19,8.19,0,0,0-2.13-.8c-.77-.37-1.54-.75-2.29-1.17a50.68,50.68,0,0,1-4.73-3h7.38a7.13,7.13,0,0,0,6.4,4h21.56a7.15,7.15,0,0,0,7.14-7.15v-9.69a7.15,7.15,0,0,0-7.14-7.15H232.88a7.14,7.14,0,0,0-6.41,4H204.13a51.93,51.93,0,0,1-7.47-26.81V179.56c1.77-.84,3.48-1.62,5.44-2.33,15.84-5.78,34.17-8.84,53-8.84s37.17,3.06,53,8.84c1.86.68,3.68,1.4,5.45,2.14v23.11A52.36,52.36,0,0,1,286.39,248.25ZM196.61,162.2l-.15.06-.19-8.53c16.95-7.2,37.67-11.14,58.83-11.14S297,146.53,314,153.75l-.17,8.53-.2-.08c-17.57-6.42-37.8-9.81-58.49-9.81S214.19,155.78,196.61,162.2Zm117.71-25.53c-17.73-6.61-38-10.08-59.22-10.08s-41.47,3.47-59.2,10.08l0-1.45c0-29.55,26.59-53.59,59.23-53.59s59.22,24,59.25,53.59Zm44.7,59H330.16V144.35H359ZM255.11,54.86a81.59,81.59,0,0,1,81.08,73.49H330c-3.76-35.16-35.9-62.72-74.88-62.72S184,93.19,180.24,128.34H174A81.61,81.61,0,0,1,255.11,54.86Zm-90,140.78h-14v-51.3h28.86v51.3Zm9.27,16h6.86a67.46,67.46,0,0,0,3.19,13.24A25.78,25.78,0,0,1,174.42,211.64Zm31.17,70.8,15.21,7.61h0l20.79,10.4-13.67,13.67-36-18ZM72,457.14V411.89c0-15,8.16-29.23,21.94-38.54,3.32.53,10.45,2.57,17.69,10.34,9.11,9.76,19.87,30.37,21.06,73.45Zm49.22-86.52A52,52,0,0,0,111,362.83l80.19-49.25L225.92,331a8,8,0,0,0,9.24-1.5l1.28-1.27v128.9H148.7C147.65,416.34,138.42,387.26,121.22,370.62ZM440,457.14H379.31c1.19-43.07,11.95-63.69,21.06-73.45,7.24-7.77,14.35-9.8,17.67-10.34a52.48,52.48,0,0,1,15.71,16.33,43.38,43.38,0,0,1,6.25,22.2ZM213.49,345.77H170.83a8,8,0,0,0-8,8v42.66a8,8,0,0,0,8,8h42.66a8,8,0,0,0,8-8V353.77A8,8,0,0,0,213.49,345.77Zm-8,42.66H178.83V361.77h26.66Zm163.37,8V353.77a8,8,0,0,0-8-8H291a8,8,0,0,0-8,8v42.66a8,8,0,0,0,8,8h69.86A8,8,0,0,0,368.86,396.43Zm-16-8H299V361.77h53.86ZM221.33,426.66a8,8,0,0,1-8,8H170.67a8,8,0,0,1,0-16h42.66A8,8,0,0,1,221.33,426.66Z"/></svg>