<?xml version="1.0" ?><!-- Uploaded to: SVG Repo, www.svgrepo.com, Generator: SVG Repo Mixer Tools -->
<svg fill="#000000" width="800px" height="800px" viewBox="0 0 512 512" data-name="Layer 1" id="Layer_1" xmlns="http://www.w3.org/2000/svg"><title/><path d="M488.14,251.87,501.92,214l-41.64-15.16h0l-37.87-13.78h0l-37.88-13.79h0L346.66,157.5h0l-28.48-10.37,5.27-14.48a8,8,0,1,0-15-5.48L256,271.19l-52.42-144a8,8,0,1,0-15,5.48l5.27,14.48L165.34,157.5h0l-37.87,13.78h0L89.59,185.07h0L51.72,198.85h0L10.08,214l13.78,37.86h0l13.78,37.86h0L52.8,331.36l37.87-13.79h0l37.88-13.79h0L166.42,290h0l37.88-13.78h0l32.23-11.73,11,30.09-30.86,84.77a8,8,0,0,0,15,5.48L256,318l24.33,66.86a8,8,0,0,0,15-5.48l-30.86-84.77,11-30.09,32.23,11.73h0L345.58,290h0l37.87,13.79h0l37.88,13.79h0l37.87,13.79,15.16-41.63h0l13.78-37.86Zm-371,8.92-12.4-34.09,34.11-12.42,12.41,34.09Zm75.75-27.57-1-2.66L180.5,199.13,209,188.77l12.41,34.08ZM128.84,175,163,162.62l1,2.67,11.44,31.43-34.11,12.42-6.21-17ZM87.2,190.19,99.61,224.3,65.5,236.71l-12.41-34.1ZM29,254.27l34.11-12.42,6.21,17,6.2,17L41.4,288.36Zm64.06,58.18-12.41-34.1,34.12-12.42L127.18,300Zm109.87-40-34.12,12.42-6.21-17.06-6.2-17,34.12-12.42,1,2.65Zm157.8-24.09,12.41-34.09,34.11,12.42-12.4,34.09ZM331.5,199.13l-11.44,31.43-1,2.66-28.48-10.37L303,188.77Zm115,37.58L412.39,224.3l12.41-34.11,34.11,12.42ZM377,192.1l-6.21,17-34.11-12.42,11.44-31.43,1-2.67L383.16,175ZM320.52,241l1-2.65,34.12,12.42-6.2,17-6.21,17.06-34.12-12.42Zm76.71,24.92,34.12,12.42-12.41,34.1L384.82,300Zm39.25,10,6.2-17,6.21-17L483,254.27l-12.4,34.09Z"/></svg>